<svg xmlns="http://www.w3.org/2000/svg" xmlns:xlink="http://www.w3.org/1999/xlink" width="500" zoomAndPan="magnify" viewBox="0 0 375 374.999991" height="500" preserveAspectRatio="xMidYMid meet" version="1.0"><defs><clipPath id="551d6f5ef2"><path d="M 33.484375 31.722656 L 344.4375 31.722656 L 344.4375 343.5 L 33.484375 343.5 Z M 33.484375 31.722656 " clip-rule="nonzero"/></clipPath><clipPath id="cce763a001"><path d="M 61 180.40625 L 325 180.40625 L 325 343.5 L 61 343.5 Z M 61 180.40625 " clip-rule="nonzero"/></clipPath><clipPath id="81205ddd83"><path d="M 33.484375 31.722656 L 344.4375 31.722656 L 344.4375 339.300781 L 33.484375 339.300781 Z M 33.484375 31.722656 " clip-rule="nonzero"/></clipPath><clipPath id="bd0957646c"><path d="M 33 31.238281 L 267 31.238281 L 267 290 L 33 290 Z M 33 31.238281 " clip-rule="nonzero"/></clipPath><clipPath id="8827cbc29d"><path d="M 140 31.238281 L 257 31.238281 L 257 204 L 140 204 Z M 140 31.238281 " clip-rule="nonzero"/></clipPath><clipPath id="730402bf49"><path d="M 239.007812 117 L 344.4375 117 L 344.4375 333 L 239.007812 333 Z M 239.007812 117 " clip-rule="nonzero"/></clipPath><clipPath id="18ccd9d69e"><path d="M 328 291 L 344.4375 291 L 344.4375 325.679688 L 328 325.679688 Z M 328 291 " clip-rule="nonzero"/></clipPath></defs><g clip-path="url(#551d6f5ef2)"><path fill="#ffab17" d="M 181.011719 31.722656 C 199.816406 47.304688 184.40625 77.960938 168.59375 88.109375 C 152.777344 98.257812 114.714844 135.394531 168.105469 185.410156 C 160.535156 170.644531 162.371094 153.527344 162.371094 153.527344 C 162.371094 153.527344 195.625 177.765625 192.109375 199.613281 C 188.59375 221.464844 154.191406 217.285156 151.851562 186.585938 C 137.453125 203.730469 144.390625 222.242188 158.160156 227.953125 C 171.933594 233.660156 156.078125 267.921875 136.007812 240.902344 C 115.9375 213.886719 158.863281 159.230469 102.609375 130.835938 C 124.011719 149.945312 118.230469 187.019531 101.503906 200.621094 C 84.773438 214.222656 69.328125 242.625 93.976562 262.253906 C 59.480469 244.722656 89.664062 185.601562 57.628906 181.703125 C 78.597656 195.421875 63.859375 231.558594 46.53125 242.113281 C 29.203125 252.671875 28.304688 281.542969 48.878906 299.101562 C 69.453125 316.65625 63.417969 335.230469 63.417969 335.230469 C 63.417969 335.230469 89.492188 307.738281 74.648438 283.878906 C 98.867188 293.503906 110.632812 320.589844 107.757812 330.328125 C 127.085938 316.867188 123.382812 287.480469 123.382812 287.480469 C 123.382812 287.480469 169.195312 329.996094 186.140625 257.445312 C 181.253906 276.457031 203.449219 282.992188 203.449219 282.992188 C 203.449219 282.992188 184.503906 264.421875 209.628906 219.074219 C 199.070312 259.320312 228.671875 296.3125 255.332031 266.898438 C 247.039062 298.511719 267.4375 308.75 290.582031 296.523438 C 297.492188 328.644531 276.292969 330.710938 276.292969 330.710938 C 276.292969 330.710938 302.382812 342.289062 318.101562 320.398438 C 312.539062 336.042969 318.003906 338.074219 308.722656 343.5 C 351.6875 330.746094 344.523438 318.78125 343.140625 291.339844 C 343.140625 291.339844 336.066406 298.746094 327.425781 300.5 C 348.058594 281.441406 317.273438 300.355469 329.152344 218.1875 C 329.152344 218.1875 323.730469 239.925781 303.59375 242.65625 C 313.859375 226.601562 309.925781 196.046875 282.996094 175.667969 C 260.355469 158.539062 250.402344 141.503906 253.84375 117.117188 C 253.84375 117.117188 222.703125 150.304688 252.09375 176.722656 C 275.789062 198.019531 268.613281 216.808594 256.058594 226.800781 C 262.457031 185.25 239.515625 172.667969 213.101562 151.839844 C 192.246094 135.390625 186.089844 120.039062 198.652344 100.609375 C 216.335938 73.25 201.667969 37.96875 181.011719 31.722656 " fill-opacity="1" fill-rule="nonzero"/></g><g clip-path="url(#cce763a001)"><path fill="#ffcb39" d="M 308.722656 343.5 C 312.375 342.417969 315.644531 341.335938 318.609375 340.25 C 322.890625 332.445312 325.035156 323.488281 324.605469 314.574219 C 320.164062 314.929688 315.761719 312.699219 313.253906 309.089844 C 313.488281 319.054688 305.15625 328.59375 295.007812 329.074219 C 294.300781 329.109375 294.292969 328.160156 294.851562 327.9375 C 298.214844 326.617188 299.949219 322.9375 300.652344 319.613281 C 301.546875 315.394531 300.03125 311.042969 299.40625 306.882812 C 298.8125 302.933594 298.539062 298.984375 299.097656 295.011719 C 299.535156 291.871094 300.4375 288.839844 301.695312 285.949219 C 298.054688 289.273438 296.011719 294.160156 295.96875 299.105469 C 295.960938 299.757812 294.890625 299.945312 294.792969 299.265625 C 294.785156 299.214844 294.78125 299.160156 294.777344 299.105469 C 294.195312 294.902344 294.082031 290.671875 294.605469 286.480469 C 292.363281 289.4375 289.25 291.722656 285.640625 292.714844 C 281.746094 293.785156 277.554688 293.414062 274.089844 291.257812 C 270.714844 289.15625 268.355469 285.652344 267.835938 281.691406 C 267.273438 277.347656 268.738281 273.023438 270.105469 268.964844 C 271.355469 265.261719 272.679688 261.492188 272.9375 257.585938 C 270.785156 261.003906 267.871094 263.902344 264.089844 265.511719 C 263.507812 265.753906 262.855469 265.085938 263.375 264.578125 C 269.929688 258.175781 268.007812 246.875 273.289062 239.941406 C 270.449219 241.832031 268.089844 244.429688 265.980469 247.105469 C 261.113281 253.304688 256.832031 261.53125 249.039062 264.472656 C 240.097656 267.84375 230.09375 259.898438 230.007812 250.707031 C 227.4375 253.707031 226.671875 258.144531 228.390625 261.78125 C 228.632812 262.285156 228.09375 263.035156 227.539062 262.636719 C 222.546875 259.046875 220.796875 252.421875 220.96875 246.542969 C 221.058594 243.214844 222.007812 239.820312 222.757812 236.59375 C 223.570312 233.066406 224.457031 229.53125 224.941406 225.9375 C 225.738281 220.019531 225.425781 213.953125 224.121094 208.128906 C 221.765625 197.597656 216.226562 187.882812 208.253906 180.636719 C 210.222656 184.972656 210.949219 189.746094 210.667969 194.546875 C 210.007812 205.933594 204.835938 216.246094 199.59375 226.132812 C 193.867188 236.941406 187.84375 248.957031 189.625 261.5625 C 189.738281 262.351562 188.5625 262.714844 188.402344 261.902344 C 187.355469 256.5 185.386719 251.355469 182.652344 246.613281 C 183.167969 248.699219 183.421875 250.851562 183.394531 253.019531 C 183.289062 260.832031 179.679688 268.535156 173.519531 273.386719 C 168.527344 277.324219 162.207031 279.441406 155.878906 279.234375 C 158.941406 280.773438 162.28125 281.613281 165.78125 281.664062 C 166.632812 281.679688 166.796875 282.90625 165.980469 283.136719 C 162.054688 284.242188 157.976562 284.910156 153.898438 285.113281 C 140.25 285.789062 126.382812 280.703125 116.390625 271.40625 C 116.308594 277.089844 117.425781 282.726562 119.945312 287.855469 C 120.230469 288.433594 119.585938 289.320312 118.953125 288.847656 C 117.941406 288.089844 116.960938 287.300781 116.003906 286.484375 C 117.703125 296.855469 116.972656 307.484375 113.582031 317.464844 C 113.324219 318.21875 112.226562 318.273438 111.992188 317.464844 C 110.328125 311.773438 108.753906 305.984375 106.066406 300.667969 C 104.886719 298.328125 103.492188 296.074219 101.773438 294.082031 C 100.039062 292.070312 97.816406 290.484375 95.570312 289.082031 C 90.976562 286.226562 85.921875 284.242188 80.953125 282.167969 C 73.679688 279.125 65.875 274.816406 61.738281 267.882812 C 62.078125 272.390625 63.410156 276.761719 65.027344 281.015625 C 68.570312 290.324219 72.828125 299.316406 73.25 309.445312 C 73.460938 314.578125 72.800781 319.613281 71.394531 324.4375 C 77.566406 314.238281 83.683594 298.394531 74.648438 283.878906 C 98.867188 293.503906 110.632812 320.589844 107.757812 330.324219 C 127.085938 316.867188 123.382812 287.480469 123.382812 287.480469 C 123.382812 287.480469 169.195312 329.996094 186.140625 257.445312 C 181.253906 276.457031 203.449219 282.992188 203.449219 282.992188 C 203.449219 282.992188 184.503906 264.421875 209.628906 219.074219 C 199.070312 259.320312 228.671875 296.3125 255.332031 266.898438 C 247.039062 298.511719 267.433594 308.75 290.582031 296.523438 C 297.492188 328.644531 276.292969 330.710938 276.292969 330.710938 C 276.292969 330.710938 302.382812 342.289062 318.101562 320.398438 C 312.539062 336.042969 318.003906 338.074219 308.722656 343.5 " fill-opacity="1" fill-rule="nonzero"/></g><g clip-path="url(#81205ddd83)"><path fill="#ff6915" d="M 343.140625 291.339844 C 343.140625 291.339844 336.066406 298.746094 327.425781 300.496094 C 348.058594 281.433594 317.273438 300.355469 329.152344 218.1875 C 329.152344 218.1875 323.730469 239.925781 303.589844 242.65625 C 313.859375 226.601562 309.925781 196.046875 282.996094 175.667969 C 260.355469 158.539062 250.402344 141.5 253.84375 117.117188 C 253.84375 117.117188 222.703125 150.304688 252.09375 176.722656 C 275.789062 198.023438 268.613281 216.808594 256.058594 226.800781 C 262.457031 185.25 239.515625 172.664062 213.101562 151.839844 C 192.246094 135.390625 186.089844 120.039062 198.652344 100.609375 C 216.335938 73.25 201.667969 37.96875 181.011719 31.722656 C 199.808594 47.304688 184.410156 77.960938 168.59375 88.113281 C 152.777344 98.257812 114.714844 135.394531 168.105469 185.410156 C 160.535156 170.644531 162.371094 153.527344 162.371094 153.527344 C 162.371094 153.527344 195.625 177.765625 192.109375 199.613281 C 188.597656 221.464844 154.191406 217.285156 151.851562 186.585938 C 137.453125 203.730469 144.390625 222.242188 158.160156 227.953125 C 171.933594 233.660156 156.078125 267.921875 136.007812 240.902344 C 115.9375 213.886719 158.863281 159.230469 102.609375 130.835938 C 124.011719 149.945312 118.230469 187.019531 101.503906 200.621094 C 84.773438 214.222656 69.328125 242.621094 93.976562 262.253906 C 59.480469 244.722656 89.664062 185.601562 57.628906 181.703125 C 78.597656 195.421875 63.859375 231.558594 46.53125 242.113281 C 29.203125 252.671875 28.304688 281.542969 48.882812 299.101562 C 69.453125 316.65625 63.417969 335.230469 63.417969 335.230469 C 63.417969 335.230469 64.277344 334.324219 65.582031 332.71875 C 67.082031 327.769531 66.378906 322.667969 64.535156 317.902344 C 58.375 301.953125 38.835938 289.167969 43.355469 270.132812 C 43.5 269.527344 44.300781 269.738281 44.359375 270.269531 C 45.066406 276.488281 49.539062 281.347656 55.246094 283.386719 C 50.101562 278.414062 48.328125 270.609375 49.132812 263.621094 C 50.28125 253.695312 56.386719 245.117188 61.964844 237.15625 C 62.296875 236.683594 63.089844 236.960938 62.929688 237.566406 C 61.253906 243.910156 61.898438 250.785156 64.855469 256.664062 C 70.25 267.429688 82.101562 271.582031 91.945312 277.175781 C 98.527344 280.910156 105.4375 286.980469 107.921875 294.421875 C 107.742188 285.613281 105.535156 276.871094 101.171875 269.160156 C 100.875 268.640625 101.484375 267.933594 102.027344 268.304688 C 105.761719 270.835938 108.835938 274.234375 110.667969 278.332031 C 110.761719 274.417969 109.109375 270.636719 107.28125 267.191406 C 105.097656 263.082031 102.492188 259.15625 100.792969 254.796875 C 97.4375 246.203125 98.351562 236.316406 103.238281 228.5 C 103.625 227.886719 104.519531 228.160156 104.558594 228.859375 C 104.902344 234.5625 105.542969 240.265625 106.933594 245.824219 C 109.226562 255.003906 113.902344 264.484375 121.90625 269.96875 C 128.507812 274.496094 137.078125 276.34375 144.78125 273.996094 C 137.773438 272.082031 131.105469 267.714844 127.480469 261.375 C 127.023438 260.566406 128.035156 259.945312 128.679688 260.453125 C 133.78125 264.472656 140.0625 267.039062 146.519531 267.746094 C 157.136719 268.902344 168.214844 264.84375 173.382812 255.074219 C 177.785156 246.746094 177.59375 235.460938 170.449219 228.695312 C 169.84375 228.117188 170.488281 227.253906 171.207031 227.390625 C 178.125 228.703125 184.234375 232.574219 188.601562 237.980469 C 187.671875 229.855469 192.691406 221.542969 196.90625 214.976562 C 199.199219 211.394531 201.625 207.800781 203.019531 203.75 C 204.546875 199.320312 204.128906 194.734375 202.613281 190.359375 C 201.125 186.039062 198.683594 182.085938 195.992188 178.421875 C 193.339844 174.804688 190.097656 171.746094 186.859375 168.660156 C 180.792969 162.878906 174.683594 156.792969 171.125 149.0625 C 167.914062 142.078125 167.152344 133.953125 171.070312 127.085938 C 171.46875 126.386719 172.386719 126.777344 172.460938 127.464844 C 173.5625 137.449219 179.457031 145.890625 186.449219 152.773438 C 193.011719 159.226562 200.628906 164.449219 207.902344 170.042969 C 214.898438 175.429688 222.347656 181.308594 227.015625 188.929688 C 235.382812 202.566406 237.742188 220.171875 232.640625 235.410156 C 237.316406 232.132812 240.339844 226.664062 240.972656 221 C 241.078125 220.03125 242.347656 220.046875 242.46875 221 C 243.792969 231.171875 242.578125 241.558594 238.050781 250.800781 C 243.035156 250.34375 247.929688 249.0625 252.464844 246.933594 C 261.28125 242.796875 268.613281 235.675781 272.851562 226.890625 C 277.347656 217.574219 277.972656 206.847656 275.265625 196.929688 C 275.070312 196.210938 276.019531 195.605469 276.550781 196.183594 C 286.5 206.933594 286.191406 222.652344 283.667969 236.265625 C 284.714844 235.953125 285.878906 236.097656 286.683594 236.945312 C 288.425781 238.78125 288.425781 241.964844 288.046875 244.273438 C 287.097656 250.085938 283.328125 254.882812 281.300781 260.296875 C 279.527344 265.027344 279.484375 271.398438 283.816406 274.824219 C 287.75 277.933594 293.789062 276.589844 297.59375 273.972656 C 302.550781 270.5625 305.375 264.835938 307.429688 259.359375 C 307.632812 258.828125 308.242188 258.628906 308.683594 259.027344 C 314.433594 264.28125 314.121094 272.890625 312.363281 279.851562 C 310.253906 288.222656 305.269531 296.949219 306.765625 305.734375 C 308.425781 300.429688 311.21875 295.605469 315.484375 291.886719 C 316.09375 291.351562 317.117188 292.039062 316.648438 292.777344 C 314.003906 296.933594 314.660156 303.1875 318 306.839844 C 321.4375 310.597656 327.71875 311.238281 332.050781 308.882812 C 332.558594 308.613281 333.207031 308.949219 333.203125 309.542969 C 333.175781 313.59375 332.59375 317.648438 331.453125 321.539062 C 329.539062 328.089844 326.105469 334.117188 321.5625 339.128906 C 350.097656 327.800781 344.363281 315.640625 343.140625 291.339844 " fill-opacity="1" fill-rule="nonzero"/></g><g clip-path="url(#bd0957646c)"><path fill="#fc5d0d" d="M 256.058594 226.800781 C 262.457031 185.25 239.515625 172.667969 213.101562 151.839844 C 192.246094 135.390625 186.089844 120.039062 198.652344 100.609375 C 216.335938 73.25 201.667969 37.96875 181.011719 31.722656 C 199.816406 47.304688 184.40625 77.960938 168.59375 88.109375 C 152.777344 98.257812 114.714844 135.394531 168.105469 185.410156 C 160.535156 170.644531 162.371094 153.527344 162.371094 153.527344 C 162.371094 153.527344 195.625 177.765625 192.109375 199.613281 C 188.59375 221.464844 154.191406 217.285156 151.851562 186.585938 C 137.453125 203.730469 144.390625 222.242188 158.160156 227.953125 C 171.933594 233.660156 156.078125 267.921875 136.007812 240.902344 C 115.9375 213.886719 158.863281 159.230469 102.609375 130.835938 C 124.011719 149.945312 118.230469 187.019531 101.503906 200.621094 C 84.773438 214.222656 69.328125 242.625 93.976562 262.253906 C 59.480469 244.722656 89.664062 185.601562 57.628906 181.703125 C 78.597656 195.421875 63.859375 231.558594 46.53125 242.113281 C 32.160156 250.867188 29.105469 272.214844 40.210938 289.261719 C 36.429688 277.273438 37.621094 263.675781 44.046875 252.820312 C 44.378906 252.257812 45.382812 252.640625 45.128906 253.277344 C 44.203125 255.597656 44.144531 258.035156 44.933594 260.296875 C 45.476562 253.828125 49.320312 248.3125 53.410156 243.355469 C 58.492188 237.199219 64.5 231.273438 66.988281 223.484375 C 67.230469 222.71875 68.402344 223.035156 68.195312 223.816406 C 64.929688 236.0625 68.800781 250.027344 78.050781 258.707031 C 76.945312 255.527344 75.808594 252.359375 74.730469 249.164062 C 74.460938 248.355469 75.609375 247.980469 76.035156 248.613281 C 81.953125 257.402344 89.640625 264.875 98.515625 270.628906 C 95.046875 264.652344 92.449219 258.203125 90.835938 251.46875 C 90.636719 250.636719 91.714844 250.230469 92.171875 250.90625 C 92.855469 251.902344 93.609375 252.828125 94.398438 253.726562 C 93.324219 251.609375 92.460938 249.394531 91.855469 247.09375 C 87.996094 232.390625 93.648438 215.46875 106.851562 207.398438 C 107.347656 207.097656 108.0625 207.605469 107.867188 208.179688 C 107.164062 210.257812 106.488281 212.34375 105.847656 214.441406 C 113.660156 206.503906 118.53125 196.054688 119.851562 184.976562 C 119.941406 184.210938 121.007812 183.972656 121.246094 184.789062 C 124.5625 196.03125 121.0625 207.496094 118.816406 218.582031 C 117.09375 227.066406 115.921875 236.726562 119.585938 244.808594 C 119.546875 242.511719 119.445312 240.210938 119.179688 237.925781 C 119.050781 236.847656 120.695312 236.742188 120.988281 237.679688 C 123.351562 245.253906 128.261719 252.1875 135.191406 256.222656 C 141.289062 259.773438 148.996094 260.773438 155.566406 257.917969 C 161.71875 255.246094 166.890625 249.601562 167.992188 242.855469 C 169.148438 235.777344 164.628906 229.753906 160.460938 224.542969 C 156.539062 219.644531 152.113281 214.621094 150.960938 208.25 C 150.785156 207.253906 152.199219 206.488281 152.707031 207.515625 C 158.339844 218.925781 172.019531 222.691406 183.589844 225.242188 C 183.625 218.859375 190.289062 214.207031 193.707031 209.453125 C 197.597656 204.039062 197.566406 196.972656 195.699219 190.8125 C 193.621094 183.976562 189.292969 178.046875 184.433594 172.910156 C 179.484375 167.683594 173.941406 163.078125 169.140625 157.710938 C 164.839844 152.902344 161.039062 147.59375 158.890625 141.492188 C 155.128906 145.683594 153.957031 151.804688 155.917969 157.128906 C 156.257812 158.058594 154.871094 158.535156 154.382812 157.769531 C 151.121094 152.691406 149.96875 146.660156 150.523438 140.6875 C 151.574219 129.355469 157.703125 119.59375 164.929688 111.121094 C 172.632812 102.085938 181.714844 94.027344 187.171875 83.304688 C 187.558594 82.546875 188.757812 83.089844 188.527344 83.878906 C 185.101562 95.617188 181.71875 107.863281 182.347656 120.207031 C 182.621094 125.625 183.765625 131.066406 186.144531 135.96875 C 188.085938 139.964844 190.835938 143.539062 193.933594 146.714844 C 200.367188 153.300781 208.199219 158.28125 215.597656 163.679688 C 223.167969 169.214844 230.070312 175.339844 235.292969 183.207031 C 240.402344 190.890625 243.746094 199.640625 245.074219 208.761719 C 245.386719 208.265625 245.707031 207.773438 246.105469 207.332031 C 246.570312 206.820312 247.527344 207.070312 247.675781 207.746094 C 249.84375 217.476562 249.519531 227.550781 246.839844 237.132812 C 252.320312 234.367188 257.007812 230.222656 260.519531 225.167969 C 263.128906 221.410156 265.117188 217.175781 266.378906 212.738281 C 264.453125 218.382812 260.617188 223.175781 256.058594 226.800781 " fill-opacity="1" fill-rule="nonzero"/></g><g clip-path="url(#8827cbc29d)"><path fill="#f9320b" d="M 158.4375 170.03125 C 158.253906 170.40625 157.734375 170.589844 157.410156 170.238281 C 151.332031 163.671875 147.242188 155.425781 145.738281 146.59375 C 145.074219 142.675781 144.886719 138.671875 145.292969 134.710938 C 145.71875 130.515625 146.921875 126.417969 148.511719 122.515625 C 151.695312 114.691406 156.550781 107.605469 162.179688 101.335938 C 168.554688 94.234375 175.71875 87.914062 182.480469 81.199219 C 185.714844 77.992188 189.101562 74.78125 191.773438 71.070312 C 194.257812 67.621094 196.175781 63.625 195.953125 59.28125 C 195.914062 58.535156 196.921875 58.523438 197.152344 59.117188 C 197.730469 60.59375 198.234375 62.097656 198.644531 63.625 C 200.261719 69.699219 200.457031 76.140625 199.3125 82.316406 C 198.726562 85.464844 197.757812 88.417969 196.425781 91.320312 C 195.074219 94.273438 193.578125 97.15625 192.296875 100.140625 C 189.972656 105.558594 188.554688 111.253906 188.492188 117.164062 C 188.433594 122.835938 189.515625 128.503906 191.671875 133.746094 C 193.925781 139.226562 197.433594 144.019531 201.734375 148.066406 C 206.40625 152.460938 211.785156 155.9375 216.84375 159.855469 C 222.160156 163.984375 227.300781 168.351562 232.222656 172.933594 C 234.644531 175.1875 236.964844 177.53125 239.375 179.789062 C 241.660156 181.925781 243.894531 184.113281 245.988281 186.4375 C 250.417969 191.359375 254.191406 197.277344 256.367188 203.652344 C 252.421875 179.464844 233.835938 168.1875 213.101562 151.839844 C 192.246094 135.390625 186.097656 120.039062 198.652344 100.609375 C 216.339844 73.246094 201.667969 37.96875 181.011719 31.722656 C 199.808594 47.304688 184.410156 77.960938 168.59375 88.109375 C 153.425781 97.84375 117.816406 132.398438 162.003906 179.324219 C 160.460938 176.378906 159.253906 173.257812 158.4375 170.03125 " fill-opacity="1" fill-rule="nonzero"/></g><path fill="#f9320b" d="M 151.675781 195.277344 C 152.050781 195.171875 152.558594 195.410156 152.628906 195.820312 C 153.097656 198.507812 154.03125 201.109375 155.335938 203.503906 C 157.703125 207.859375 161.234375 211.570312 165.511719 214.097656 C 167.730469 215.40625 170.226562 215.960938 172.609375 216.890625 C 174.539062 217.644531 176.332031 218.621094 177.929688 219.910156 C 178.085938 217.644531 179.222656 215.59375 180.714844 213.855469 C 181.1875 213.304688 181.6875 212.777344 182.195312 212.257812 C 170.730469 216.5 153.488281 208.015625 151.851562 186.585938 C 137.453125 203.730469 144.390625 222.242188 158.160156 227.949219 C 159.433594 228.480469 160.453125 229.253906 161.238281 230.195312 C 160.011719 227.296875 158.089844 224.65625 156.109375 222.214844 C 153.019531 218.417969 149.496094 214.585938 148.25 209.71875 C 147.539062 206.9375 148.078125 204.023438 148.585938 201.246094 C 149.019531 198.886719 148.871094 196.097656 151.675781 195.277344 " fill-opacity="1" fill-rule="nonzero"/><path fill="#f9320b" d="M 82.082031 242.371094 C 82.410156 234.484375 85.894531 226.890625 89.757812 220.144531 C 93.972656 212.785156 99.3125 206.097656 105.246094 200.058594 C 105.753906 199.539062 106.613281 199.941406 106.628906 200.628906 C 106.652344 201.214844 106.734375 201.796875 106.824219 202.371094 C 108.261719 200.09375 109.683594 197.804688 111.03125 195.476562 C 114.117188 190.140625 117.019531 184.652344 118.832031 178.738281 C 120.539062 173.171875 121.554688 167.324219 121.191406 161.496094 C 121.148438 160.742188 122.238281 160.484375 122.589844 161.113281 C 123.355469 162.496094 124.058594 163.910156 124.683594 165.363281 C 130.015625 177.695312 130.316406 191.554688 129.460938 204.757812 C 129.234375 208.296875 128.914062 211.824219 128.574219 215.355469 C 128.246094 218.761719 127.667969 222.136719 127.433594 225.554688 C 127.210938 228.789062 127.011719 232.25 127.601562 235.445312 C 128.125 238.289062 128.976562 241.089844 130.324219 243.65625 C 132.847656 248.472656 137.105469 252.046875 142.496094 253.121094 C 147.519531 254.128906 153.023438 252.847656 156.871094 249.398438 C 151.871094 252.761719 144.300781 252.066406 136.007812 240.902344 C 115.9375 213.886719 158.863281 159.230469 102.609375 130.835938 C 124.011719 149.945312 118.230469 187.019531 101.503906 200.621094 C 89.171875 210.644531 77.566406 228.703125 82.164062 245.367188 C 82.066406 244.378906 82.039062 243.378906 82.082031 242.371094 " fill-opacity="1" fill-rule="nonzero"/><path fill="#f9320b" d="M 34.839844 269.457031 C 35.183594 266.03125 35.71875 262.65625 37.019531 259.457031 C 39.363281 253.726562 43.199219 248.761719 47.222656 244.113281 C 51.492188 239.183594 56.105469 234.527344 59.933594 229.238281 C 64.097656 223.476562 67.46875 217.203125 70.699219 210.882812 C 71.019531 210.257812 71.90625 210.601562 71.941406 211.21875 C 72.132812 214.84375 72.136719 218.476562 72.300781 222.101562 C 72.570312 227.988281 73.4375 234.003906 75.449219 239.570312 C 76.554688 242.621094 78.128906 245.507812 80.230469 247.941406 C 68.90625 223.730469 83.410156 184.835938 57.628906 181.699219 C 78.597656 195.421875 63.859375 231.558594 46.53125 242.113281 C 35.75 248.683594 31.335938 262.339844 34.496094 275.957031 C 34.515625 273.777344 34.621094 271.605469 34.839844 269.457031 " fill-opacity="1" fill-rule="nonzero"/><g clip-path="url(#730402bf49)"><path fill="#fc5d0d" d="M 343.140625 291.339844 C 343.140625 291.339844 336.066406 298.746094 327.425781 300.496094 C 348.058594 281.433594 317.273438 300.355469 329.152344 218.1875 C 329.152344 218.1875 323.730469 239.925781 303.589844 242.65625 C 313.859375 226.601562 309.925781 196.046875 282.996094 175.667969 C 260.355469 158.539062 250.402344 141.5 253.84375 117.117188 C 253.84375 117.117188 222.703125 150.304688 252.09375 176.722656 C 264.25 187.648438 268.265625 197.90625 267.613281 206.660156 C 268.261719 201.480469 267.890625 196.191406 266.324219 191.183594 C 262.335938 178.457031 250.414062 168.304688 251.335938 154.125 C 251.40625 153.054688 252.902344 152.808594 253.226562 153.871094 C 255.3125 160.703125 259.089844 166.777344 263.554688 172.289062 C 271.464844 182.050781 281.375 190.070312 288.285156 200.632812 C 293.804688 209.082031 297.894531 219.351562 296.578125 229.449219 C 297.191406 228.421875 297.816406 227.398438 298.480469 226.402344 C 299.027344 225.578125 300.09375 225.980469 300.214844 226.871094 C 301.78125 238.765625 292.277344 249.351562 293.296875 261.015625 C 297.386719 253.285156 304.167969 247.035156 312.398438 243.953125 C 313.140625 243.675781 313.84375 244.65625 313.429688 245.289062 C 312.308594 246.976562 311.308594 248.738281 310.320312 250.503906 C 314.476562 247.25 318.027344 243.28125 320.65625 238.703125 C 321.046875 237.816406 321.496094 236.953125 322.023438 236.105469 C 322.628906 235.148438 323.992188 235.984375 323.523438 236.980469 C 323.113281 237.839844 322.671875 238.679688 322.207031 239.503906 C 320.878906 242.554688 320.375 245.855469 320.460938 249.242188 C 320.828125 263.117188 329.722656 277.902344 324.859375 291.597656 C 325.390625 291.242188 325.921875 290.886719 326.453125 290.535156 C 327.332031 289.953125 328.339844 291.285156 327.574219 291.988281 C 324.875 294.4375 324.402344 299.953125 327.101562 302.664062 C 329.804688 305.371094 335.34375 304.910156 337.800781 302.207031 C 338.226562 301.730469 339.1875 301.945312 339.300781 302.605469 C 340.015625 306.667969 340.171875 310.792969 339.730469 314.898438 C 339.050781 321.144531 337.125 327.171875 334.1875 332.640625 C 348.113281 322.851562 344.140625 311.117188 343.140625 291.339844 " fill-opacity="1" fill-rule="nonzero"/></g><path fill="#f9320b" d="M 246.710938 163.867188 C 243.957031 154.023438 244.164062 143.488281 248.527344 134.136719 C 248.773438 133.605469 249.535156 133.910156 249.558594 134.414062 C 249.890625 141.558594 252.792969 148.222656 256.851562 154.03125 C 264.539062 165.042969 275.976562 172.546875 285.40625 181.910156 C 293.894531 190.339844 301.792969 201.769531 300.96875 214.257812 C 301.351562 213.949219 301.753906 213.660156 302.191406 213.421875 C 302.515625 213.242188 302.988281 213.390625 303.074219 213.78125 C 305.261719 223.585938 304.515625 233.960938 300.816406 243.308594 C 309.703125 243.011719 318.378906 239.300781 324.484375 232.773438 C 324.925781 232.304688 325.90625 232.789062 325.632812 233.441406 C 323.535156 238.460938 322.5 243.847656 322.695312 249.289062 C 322.867188 254.089844 323.582031 258.886719 324.769531 263.535156 C 325.953125 268.191406 327.589844 272.71875 328.800781 277.359375 C 330.609375 284.273438 331.246094 292.074219 329.035156 298.988281 C 346.359375 282.421875 317.605469 298.054688 329.152344 218.1875 C 329.152344 218.1875 323.730469 239.925781 303.589844 242.660156 C 313.859375 226.597656 309.925781 196.042969 282.996094 175.667969 C 260.355469 158.539062 250.402344 141.503906 253.84375 117.117188 C 253.84375 117.117188 223.238281 149.746094 251.371094 176.050781 C 249.472656 172.132812 247.886719 168.058594 246.710938 163.867188 " fill-opacity="1" fill-rule="nonzero"/><g clip-path="url(#18ccd9d69e)"><path fill="#f9320b" d="M 328.109375 301.472656 C 332.265625 300.84375 336.222656 299.417969 339.90625 297.375 C 340.300781 297.15625 340.777344 297.355469 340.90625 297.777344 C 341.808594 300.703125 342.429688 303.703125 342.777344 306.75 C 343.484375 312.953125 343.011719 319.230469 341.382812 325.195312 C 346.375 316.773438 343.898438 306.382812 343.140625 291.339844 C 343.140625 291.339844 336.710938 298.0625 328.621094 300.207031 C 328.460938 300.632812 328.292969 301.058594 328.109375 301.472656 " fill-opacity="1" fill-rule="nonzero"/></g><path fill="#ea2700" d="M 114.664062 142.800781 C 123.566406 152.394531 127.417969 165.324219 128.65625 177.59375 C 129.035156 180.660156 129.347656 184.253906 129.632812 187.058594 C 129.808594 185.449219 129.953125 183.835938 130.070312 182.21875 C 131.636719 166.734375 127.910156 152.152344 114.664062 142.800781 " fill-opacity="1" fill-rule="nonzero"/><path fill="#ea2700" d="M 162.464844 94.503906 C 157.433594 99.632812 152.476562 105.03125 149.089844 111.414062 C 144.230469 120.988281 142.203125 132.179688 143.847656 142.820312 C 144.886719 125.136719 151.710938 112.074219 161.65625 97.449219 C 163.128906 95.242188 165.144531 92.515625 166.460938 90.675781 C 165.097656 91.921875 163.769531 93.199219 162.464844 94.503906 " fill-opacity="1" fill-rule="nonzero"/><path fill="#ea2700" d="M 190.46875 40.027344 C 192.8125 47.523438 192.011719 54.105469 190.300781 61.234375 C 189.941406 62.597656 189.476562 64.054688 189.039062 65.328125 C 189.382812 64.789062 189.714844 64.234375 190.03125 63.679688 C 194.445312 56.480469 195.042969 47.296875 190.46875 40.027344 " fill-opacity="1" fill-rule="nonzero"/><path fill="#ea2700" d="M 190.796875 40.246094 C 199.460938 54.34375 202.351562 71.234375 200.746094 87.191406 C 200.164062 91.183594 199.476562 95.40625 198.726562 99.238281 C 199.476562 97.394531 200.179688 95.53125 200.863281 93.652344 C 208.664062 75.269531 204.714844 54.554688 190.796875 40.246094 " fill-opacity="1" fill-rule="nonzero"/><path fill="#ea2700" d="M 220.5625 157.855469 C 214.917969 153.382812 208.710938 149.714844 202.613281 145.90625 C 213.332031 155.570312 226.210938 165.480469 236.835938 173.890625 C 231.855469 168.125 226.503906 162.640625 220.5625 157.855469 " fill-opacity="1" fill-rule="nonzero"/><path fill="#ea2700" d="M 249.824219 126.714844 C 241.84375 137.1875 240.265625 146.863281 244 159.398438 C 244.289062 160.46875 244.664062 161.835938 244.960938 162.714844 C 244.8125 161.238281 244.6875 159.757812 244.585938 158.28125 C 243.410156 147.484375 245.238281 136.492188 249.824219 126.714844 " fill-opacity="1" fill-rule="nonzero"/><path fill="#ea2700" d="M 68.777344 202.285156 C 68.214844 196.585938 66.808594 190.398438 62.769531 186.125 C 64.242188 187.980469 64.957031 191.820312 65.191406 193.375 C 66.226562 201.867188 64.144531 208.777344 61 217.113281 C 59.644531 220.425781 55.941406 229.761719 50.507812 236.773438 C 48.75 239.46875 43.417969 244.722656 41.398438 247.296875 C 43.578125 245.632812 45.890625 244.15625 48.050781 242.46875 C 60.1875 232.964844 69.761719 218.164062 68.777344 202.285156 " fill-opacity="1" fill-rule="nonzero"/><path fill="#ea2700" d="M 129.152344 231.351562 C 129.335938 237.417969 133.960938 243.769531 137.691406 246.921875 C 134.457031 241.917969 130.875 237.003906 129.152344 231.351562 " fill-opacity="1" fill-rule="nonzero"/><path fill="#ffe75a" d="M 220.730469 266.445312 C 219.527344 261.429688 218.667969 256.582031 218.195312 252.15625 C 217.1875 244.039062 218.824219 235.96875 219.414062 227.886719 C 219.902344 219.636719 219.347656 210.835938 215.21875 203.492188 C 219.070312 215.808594 214.964844 226.804688 214.171875 239.308594 C 213.667969 246.902344 215.640625 254.386719 218.472656 261.378906 C 219.199219 263.1875 220.039062 265.1875 220.824219 266.835938 C 220.792969 266.703125 220.761719 266.574219 220.730469 266.445312 " fill-opacity="1" fill-rule="nonzero"/><path fill="#ffe75a" d="M 157.027344 291.722656 C 152.707031 292.945312 148.214844 292.546875 143.875 291.679688 C 138.765625 290.644531 134.476562 289.101562 130.167969 286.183594 C 137.546875 294.4375 150.003906 297.597656 159.691406 291.46875 C 160.242188 291.164062 161.394531 290.523438 161.566406 290.347656 C 160.078125 290.878906 158.5625 291.347656 157.027344 291.722656 " fill-opacity="1" fill-rule="nonzero"/><path fill="#ffe75a" d="M 199.699219 236.222656 C 199.273438 237.019531 198.855469 237.828125 198.449219 238.636719 C 191.886719 250.894531 189.773438 262.820312 196.527344 275.570312 C 193.6875 264.246094 195.1875 253.542969 198.015625 242.445312 C 198.527344 240.394531 199.152344 238.144531 199.699219 236.222656 " fill-opacity="1" fill-rule="nonzero"/><path fill="#ffe75a" d="M 276.5 296.171875 C 275.074219 295.984375 273.015625 295.277344 272.03125 294.894531 C 270.195312 294.09375 268.085938 293.261719 266.253906 291.78125 C 260.480469 286.148438 259.78125 277.410156 260.859375 269.828125 C 255.332031 283.195312 258.824219 295.683594 274.972656 296.230469 C 275.34375 296.273438 277.066406 296.234375 276.5 296.171875 " fill-opacity="1" fill-rule="nonzero"/><path fill="#ffe75a" d="M 227.390625 267.253906 C 229.488281 269.300781 232.304688 270.722656 235.199219 271.179688 C 237.9375 271.433594 242.167969 270.574219 244.070312 270.011719 C 238.441406 269.945312 232.414062 270.195312 227.390625 267.253906 " fill-opacity="1" fill-rule="nonzero"/><path fill="#ffe75a" d="M 295.878906 301.742188 C 295.3125 307.246094 295.304688 312.816406 294.367188 317.410156 C 293.507812 321.320312 292.039062 323.957031 289.945312 327.511719 C 289.59375 328.101562 289.128906 328.753906 288.761719 329.257812 C 289.171875 328.929688 289.570312 328.59375 289.957031 328.238281 C 299.734375 319.683594 297.832031 313.207031 295.878906 301.742188 " fill-opacity="1" fill-rule="nonzero"/><path fill="#ffe75a" d="M 319.296875 332.175781 C 319.273438 332.375 319.050781 333.179688 319.191406 332.890625 C 319.828125 331.625 320.394531 330.328125 320.878906 328.992188 C 322.257812 325.667969 321.804688 322.054688 322.144531 318.558594 C 320.082031 323.472656 320.265625 327.496094 319.296875 332.175781 " fill-opacity="1" fill-rule="nonzero"/><path fill="#ffe75a" d="M 72.347656 285.949219 C 71.203125 282.800781 69.269531 279.984375 67.082031 277.472656 C 70.613281 284.144531 72.171875 292.175781 74.050781 299.761719 C 74.117188 295.128906 73.839844 290.363281 72.347656 285.949219 " fill-opacity="1" fill-rule="nonzero"/><path fill="#ffe75a" d="M 107.082031 314.226562 C 105.410156 301.332031 97.261719 289.117188 83.855469 286.613281 C 89.121094 288.964844 92.910156 292.882812 96.273438 297.367188 C 97.214844 298.628906 100.550781 302.660156 102.425781 306.242188 C 104.261719 309.398438 105.972656 312.664062 107.234375 316.054688 C 107.652344 317.34375 107.136719 314.742188 107.082031 314.226562 " fill-opacity="1" fill-rule="nonzero"/><path fill="#ffcb39" d="M 67.71875 294.78125 C 66.398438 289.21875 64.46875 283.816406 62.195312 278.574219 C 59.480469 272.371094 54.878906 261.789062 56.902344 251.460938 C 51.609375 263.152344 54.570312 276.078125 59.839844 287.207031 C 63.195312 294.449219 66.234375 301.882812 67.300781 310.300781 C 67.5625 312.222656 67.71875 314.363281 67.730469 316.179688 C 68.238281 313.625 68.511719 311.023438 68.648438 308.421875 C 68.867188 303.863281 68.734375 299.246094 67.71875 294.78125 " fill-opacity="1" fill-rule="nonzero"/><path fill="#ffcb39" d="M 62.15625 278.472656 C 62.117188 278.378906 62.078125 278.28125 62.035156 278.183594 C 61.949219 277.976562 62.058594 278.242188 62.15625 278.472656 " fill-opacity="1" fill-rule="nonzero"/><path fill="#ffcb39" d="M 83.632812 278.609375 C 82.941406 278.109375 82.019531 277.402344 81.496094 276.992188 C 74.640625 271.097656 66.539062 266.464844 62.714844 258.246094 C 63.585938 262.171875 65.429688 265.925781 68.125 268.921875 C 72.578125 273.238281 78.226562 276.207031 83.796875 278.835938 C 84.476562 279.148438 83.914062 278.832031 83.632812 278.609375 " fill-opacity="1" fill-rule="nonzero"/><path fill="#ffcb39" d="M 111.328125 260.839844 C 108.324219 255.015625 106.847656 251.636719 104.828125 245.542969 C 103.808594 242.296875 102.988281 239.144531 102.828125 235.835938 C 100.8125 246.730469 105.410156 256.449219 112.78125 264.238281 C 113.070312 264.546875 113.816406 265.429688 113.847656 265.367188 C 112.96875 263.878906 112.136719 262.367188 111.328125 260.839844 " fill-opacity="1" fill-rule="nonzero"/><path fill="#ffcb39" d="M 177.585938 257.175781 C 176.019531 261.667969 171.648438 265.808594 169.25 267.449219 C 164.429688 270.902344 158.683594 272.421875 152.511719 272.417969 C 165.21875 275.347656 176.929688 268.835938 179.105469 255.597656 C 179.394531 254.253906 179.679688 252.695312 179.832031 251.441406 C 179.15625 253.414062 178.207031 255.738281 177.585938 257.175781 " fill-opacity="1" fill-rule="nonzero"/><path fill="#ffcb39" d="M 200.574219 171.976562 C 190.355469 161.5625 177.914062 153.246094 172.515625 139.960938 C 173.480469 147.8125 177.667969 155.074219 182.703125 161.046875 C 188.078125 166.796875 194.976562 170.761719 201.574219 174.925781 C 203.320312 176.011719 205.132812 177.191406 206.800781 178.289062 C 204.734375 176.179688 202.65625 174.070312 200.574219 171.976562 " fill-opacity="1" fill-rule="nonzero"/><path fill="#ffcb39" d="M 215.519531 182.628906 C 224.09375 193.402344 228.085938 207.289062 228.796875 220.054688 C 228.925781 221.878906 229.003906 223.929688 229.0625 225.640625 C 229.296875 224.394531 229.511719 223.140625 229.710938 221.882812 C 232.738281 205.511719 228.617188 193.105469 215.519531 182.628906 " fill-opacity="1" fill-rule="nonzero"/><path fill="#ffcb39" d="M 238.882812 255.25 C 244.171875 258.34375 252.21875 254.167969 255.335938 251.519531 C 250.171875 253.367188 244.46875 256.242188 238.882812 255.25 " fill-opacity="1" fill-rule="nonzero"/><path fill="#ffcb39" d="M 278.648438 204.476562 C 280.433594 213.722656 278.996094 224.171875 277.773438 232.816406 C 277.636719 233.621094 277.417969 234.589844 277.273438 235.285156 C 277.71875 234.347656 278.125 233.394531 278.511719 232.429688 C 282.238281 223.585938 283.257812 213.199219 278.648438 204.476562 " fill-opacity="1" fill-rule="nonzero"/><path fill="#ffcb39" d="M 308.324219 263.421875 C 308.441406 266.21875 307.945312 268.421875 307.488281 271.171875 C 306.695312 275.5625 306.621094 277.863281 305.824219 282.304688 C 305.792969 282.535156 305.640625 283.144531 305.800781 282.738281 C 306.480469 281.214844 307.097656 279.65625 307.632812 278.070312 C 309.253906 273.40625 309.949219 268.179688 308.324219 263.421875 " fill-opacity="1" fill-rule="nonzero"/><path fill="#ffab17" d="M 319.855469 264.605469 C 319.355469 259.871094 317.695312 255.308594 317.414062 250.640625 C 316.332031 255.941406 316.847656 261.382812 316.957031 266.75 C 316.972656 273.058594 317.019531 279.492188 315.890625 285.632812 C 318.550781 279.023438 320.75 271.792969 319.855469 264.605469 " fill-opacity="1" fill-rule="nonzero"/><path fill="#ffab17" d="M 270.957031 209.796875 C 269.015625 216.953125 265.964844 223.089844 261.984375 227.367188 C 257.195312 233.175781 251.722656 238.066406 245.515625 241.773438 C 254.933594 239.125 263.964844 233.40625 268.714844 224.652344 C 271.488281 219.050781 272.246094 212.703125 272.621094 206.535156 C 272.6875 205.324219 272.738281 203.90625 272.742188 202.808594 C 272.226562 205.15625 271.632812 207.488281 270.957031 209.796875 " fill-opacity="1" fill-rule="nonzero"/><path fill="#ffab17" d="M 285.816406 201.203125 C 279.09375 188.710938 267.535156 179.929688 259.085938 168.761719 C 265.390625 181.84375 275.71875 192.429688 283.445312 204.609375 C 286.335938 209.714844 287.996094 214.78125 289.5625 221.097656 C 289.863281 222.210938 290.105469 224.015625 290.257812 224.757812 C 290.304688 223.949219 290.328125 223.140625 290.324219 222.332031 C 290.230469 215.085938 289.207031 207.6875 285.816406 201.203125 " fill-opacity="1" fill-rule="nonzero"/><path fill="#ffab17" d="M 293.679688 236.6875 C 292.539062 241.886719 290.421875 246.800781 289.050781 251.933594 C 288.113281 255.941406 287.574219 262.777344 288.039062 265.539062 C 289.984375 255.929688 294.054688 246.660156 293.679688 236.6875 " fill-opacity="1" fill-rule="nonzero"/><path fill="#ffab17" d="M 233.269531 177.671875 C 225.210938 167.6875 214.160156 160.671875 204.027344 152.984375 C 190.003906 143.273438 176.160156 126.804688 178.753906 106.03125 C 174.019531 120.210938 178.125 136.398438 187.742188 147.605469 C 195.871094 157.296875 207.0625 163.597656 217.410156 170.605469 C 223.460938 174.867188 227.398438 177.117188 231.957031 182.515625 C 236.097656 186.976562 242.484375 198.804688 244.367188 203.027344 C 242.058594 194.097656 238.628906 185.226562 233.269531 177.671875 " fill-opacity="1" fill-rule="nonzero"/><path fill="#ffab17" d="M 121.773438 262.214844 C 118.898438 255.742188 115.925781 248.863281 114.542969 241.273438 C 113.988281 236.261719 113.632812 230.519531 113.957031 225.242188 C 114.539062 217.503906 115.933594 211.367188 116.933594 203.53125 C 114.121094 211.5 110.449219 219.300781 109.582031 227.8125 C 108.992188 233.824219 109.257812 240.082031 111.195312 245.847656 C 113.816406 252.585938 117.550781 258.894531 121.976562 264.601562 C 122.878906 265.746094 123.945312 267.015625 124.878906 267.980469 C 123.730469 266.121094 122.710938 264.183594 121.773438 262.214844 " fill-opacity="1" fill-rule="nonzero"/><path fill="#ffab17" d="M 70.035156 250.804688 C 68.082031 247.257812 66.121094 243.578125 66.027344 239.46875 C 64.449219 247.222656 70.667969 255.464844 74.910156 260.28125 C 73.113281 257.21875 71.632812 253.984375 70.035156 250.804688 " fill-opacity="1" fill-rule="nonzero"/><path fill="#ffab17" d="M 89.941406 267.417969 C 86.222656 264.925781 82.132812 263.28125 80.28125 258.890625 C 80.617188 261.292969 81.972656 263.421875 83.535156 265.222656 C 84.816406 266.644531 88.050781 268.804688 88.800781 269.347656 C 92.363281 272.179688 96.621094 276.160156 100.523438 279.757812 C 97.347656 275.386719 94.277344 270.734375 89.941406 267.417969 " fill-opacity="1" fill-rule="nonzero"/><path fill="#ffab17" d="M 169.378906 238.339844 C 168.636719 241.484375 167.699219 244.578125 166.527344 247.585938 C 165.378906 250.304688 164 254.140625 161.28125 256.613281 C 158.335938 259.222656 155.296875 261.414062 150.878906 262.546875 C 155.707031 262.378906 160.46875 260.34375 163.972656 257.023438 C 167.808594 252.640625 168.6875 246.464844 169.269531 240.855469 C 169.3125 240.109375 169.425781 238.722656 169.378906 238.339844 " fill-opacity="1" fill-rule="nonzero"/><path fill="#ffab17" d="M 196.019531 187.285156 C 198.675781 196.132812 194.613281 205.195312 191.296875 213.390625 C 191.050781 214.074219 190.164062 215.929688 189.996094 216.480469 C 190.476562 215.820312 190.949219 215.152344 191.410156 214.484375 C 197.347656 206.160156 201.375 197.0625 196.019531 187.285156 " fill-opacity="1" fill-rule="nonzero"/><path fill="#ff6915" d="M 128.519531 194.113281 C 127.660156 187.65625 125.976562 180.917969 121.613281 175.894531 C 124.542969 181.460938 124.878906 186.765625 125.183594 192.84375 C 125.695312 201.578125 125.203125 210.320312 124.257812 219.011719 C 124.042969 221.257812 123.628906 224.183594 123.433594 226.0625 C 123.976562 224.472656 124.503906 222.886719 125.011719 221.285156 C 127.777344 212.542969 130.101562 203.316406 128.519531 194.113281 " fill-opacity="1" fill-rule="nonzero"/><path fill="#ff6915" d="M 195.792969 73.230469 C 194.585938 81.230469 190.832031 86.886719 187.871094 94.332031 C 184.355469 103.15625 184.394531 115.003906 184.664062 123.335938 C 186.234375 114.6875 188.167969 106.046875 190.753906 97.640625 C 193.335938 89.746094 196.550781 81.691406 195.792969 73.230469 " fill-opacity="1" fill-rule="nonzero"/><path fill="#ff6915" d="M 296.394531 202.933594 C 290.957031 179.179688 275.335938 174.652344 260.46875 159.964844 C 270.886719 176.5 287.78125 186.496094 295.554688 202.617188 C 296.078125 203.601562 296.621094 204.792969 297.046875 205.683594 C 296.84375 204.765625 296.625 203.847656 296.394531 202.933594 " fill-opacity="1" fill-rule="nonzero"/></svg>